<svg width="24" height="24" viewBox="0 0 24 24" fill="none" xmlns="http://www.w3.org/2000/svg">
<path fill-rule="evenodd" clip-rule="evenodd" d="M21 10.8329V19.5001C21 20.3285 20.3284 21.0001 19.5 21.0001H15.75C14.9216 21.0001 14.25 20.3285 14.25 19.5001V15.7501C14.25 15.3359 13.9142 15.0001 13.5 15.0001H10.5C10.0858 15.0001 9.75 15.3359 9.75 15.7501V19.5001C9.75 20.3285 9.07843 21.0001 8.25 21.0001H4.5C3.67157 21.0001 3 20.3285 3 19.5001V10.8329C2.99994 10.4132 3.17573 10.0127 3.48469 9.72855L10.9847 2.6523L10.995 2.64199C11.5672 2.12162 12.4412 2.12162 13.0134 2.64199C13.0166 2.64566 13.0201 2.6491 13.0238 2.6523L20.5238 9.72855C20.8296 10.0141 21.0022 10.4145 21 10.8329Z" fill="#1C120D"/>
</svg>
