<svg width="24" height="24" viewBox="0 0 24 24" fill="none" xmlns="http://www.w3.org/2000/svg">
<path fill-rule="evenodd" clip-rule="evenodd" d="M13.125 12.0001C13.125 12.6214 12.6213 13.1251 12 13.1251C11.3787 13.1251 10.875 12.6214 10.875 12.0001C10.875 11.3788 11.3787 10.8751 12 10.8751C12.6213 10.8751 13.125 11.3788 13.125 12.0001ZM7.87501 10.8751C7.25369 10.8751 6.75001 11.3788 6.75001 12.0001C6.75001 12.6214 7.25369 13.1251 7.87501 13.1251C8.49633 13.1251 9.00001 12.6214 9.00001 12.0001C9.00001 11.3788 8.49633 10.8751 7.87501 10.8751ZM16.125 10.8751C15.5037 10.8751 15 11.3788 15 12.0001C15 12.6214 15.5037 13.1251 16.125 13.1251C16.7463 13.1251 17.25 12.6214 17.25 12.0001C17.25 11.3788 16.7463 10.8751 16.125 10.8751ZM21.75 12.0001C21.7508 15.4241 19.9553 18.5976 17.02 20.3606C14.0847 22.1235 10.4398 22.2175 7.41751 20.6082L4.22532 21.6723C3.68627 21.8521 3.09192 21.7118 2.69012 21.31C2.28832 20.9082 2.14805 20.3138 2.32782 19.7748L3.39188 16.5826C1.48675 13.0007 1.99875 8.61342 4.67747 5.56647C7.3562 2.51953 11.6418 1.44978 15.4382 2.88042C19.2346 4.31106 21.7483 7.94308 21.75 12.0001ZM20.25 12.0001C20.249 8.53163 18.0787 5.43418 14.819 4.24901C11.5593 3.06384 7.90644 4.04408 5.67802 6.70198C3.4496 9.35987 3.12158 13.1277 4.8572 16.1307C4.96471 16.3168 4.98724 16.54 4.91907 16.7438L3.75001 20.2501L7.25626 19.081C7.33263 19.055 7.41276 19.0417 7.49345 19.0417C7.62517 19.0419 7.75451 19.0768 7.86845 19.1429C10.4211 20.6198 13.568 20.6218 16.1225 19.1481C18.6771 17.6744 20.2507 14.9492 20.25 12.0001Z" fill="#99614D"/>
</svg>
